<?xml version="1.0" standalone="no"?><!DOCTYPE svg PUBLIC "-//W3C//DTD SVG 1.1//EN" "http://www.w3.org/Graphics/SVG/1.1/DTD/svg11.dtd"><svg t="1701405416754" class="icon" viewBox="0 0 1024 1024" version="1.1" xmlns="http://www.w3.org/2000/svg" p-id="1027" xmlns:xlink="http://www.w3.org/1999/xlink" width="200" height="200"><path d="M910.189916 331.581322c-12.062786 5.147231-22.913481 3.7608-32.543785-4.150993-94.559621-394.676416-635.849111-391.770721-732.152149 4.234013-9.356338 3.204567-19.899861 3.179661-31.630567-0.08302C162.014934 72.227279 440.214486-73.306537 681.470201 37.524977c113.629283 52.186284 188.870182 143.151145 225.731 272.886281 1.934363 6.85744 2.930601 13.914129 2.988715 21.170064z" fill="#4B6182" p-id="1028"></path><path d="M877.646131 327.430329c9.630304 7.911793 20.481 9.298224 32.543785 4.150993l10.709562 4.483073-2.075497 391.604681c-40.513692 5.97743-123.616572 14.611495-124.114691-47.902459-0.830199-98.577782-0.913218-197.147262-0.249059-295.716743 0.332079-44.581665 31.630567-45.079784 65.917769-51.389293 2.125308-0.431703 4.757038 0.199248 7.305747 1.743417 5.313271 3.204567 8.634065 0.880011 9.962384-6.973669zM113.863415 331.581322c11.730706 3.262681 22.274229 3.287586 31.630567 0.08302 35.034381-6.14347 59.417314 1.37813 73.140497 22.581402 7.471787 11.564667 11.182775 33.091716 11.124661 64.589452 0 83.791945 0.08302 167.50087 0.24906 251.135077 0.058114 34.370222-16.628878 55.897272-50.060976 64.589452-11.514855-5.479311-22.689328-4.898172-33.540024 1.743417l-39.102354-8.634066a7449.670945 7449.670945 0 0 1 0-391.604681l6.558569-4.483073z" fill="#E2F0FA" p-id="1029"></path><path d="M107.304846 336.064395a7449.670945 7449.670945 0 0 0 0 391.604681C27.85484 734.725764 12.247106 682.589292 11.998046 613.682808 11.832007 562.758426 11.748987 511.900459 11.748987 461.092305c0-73.057477 8.717085-130.424201 95.555859-125.02791zM918.823981 727.669076l2.075497-391.604681c67.163067-4.317033 91.155807 37.275917 91.238827 98.212495 0.107926 62.206781 0.141134 124.363751 0.083019 186.462606 0 65.917769-18.762488 112.90701-93.397343 106.92958z" fill="#7BB2F4" p-id="1030"></path><path d="M179.947224 734.559725c47.927365 90.267494 119.880678 153.221454 215.851637 188.870182a62.82943 62.82943 0 0 1-8.634065 30.800368c-110.640568-39.135562-190.887565-111.77794-240.757596-217.927133 10.850696-6.641589 22.025169-7.222728 33.540024-1.743417z" fill="#4B6182" p-id="1031"></path><path d="M387.164796 954.230275a62.82943 62.82943 0 0 0 8.634065-30.800368c50.559095-68.906484 156.907536-27.147494 128.680784 55.125187-19.758727 57.864843-103.193686 62.679995-127.020387 1.660398-3.378908-8.692179-6.807629-17.351151-10.294462-25.985217z" fill="#7BB2F4" p-id="1032"></path></svg>